<?xml version="1.0" standalone="no"?>
<!DOCTYPE svg PUBLIC "-//W3C//DTD SVG 20010904//EN"
 "http://www.w3.org/TR/2001/REC-SVG-20010904/DTD/svg10.dtd">
<svg version="1.0" xmlns="http://www.w3.org/2000/svg"
 width="239.000000pt" height="239.000000pt" viewBox="0 0 239.000000 239.000000"
 preserveAspectRatio="xMidYMid meet">
<metadata>
Created by potrace 1.14, written by Peter Selinger 2001-2017
</metadata>
<g transform="translate(0.000000,239.000000) scale(0.100000,-0.100000)"
fill="#000000" stroke="none">
<path d="M1047 2153 c-4 -3 -7 -62 -7 -130 l0 -123 153 1 c121 0 148 3 133 12
-10 7 -34 22 -53 35 -19 12 -40 24 -46 25 -5 1 -18 9 -27 18 -10 9 -23 18 -31
21 -7 2 -10 9 -6 15 4 6 30 9 62 7 30 -2 55 -1 55 1 0 10 -58 34 -65 27 -5 -4
-5 -2 -1 5 3 7 -2 14 -12 17 -10 4 -45 22 -77 41 -60 37 -67 39 -78 28z m81
-69 c18 -5 20 -9 11 -20 -17 -21 -57 -17 -69 6 -9 17 -8 20 12 20 13 0 33 -3
46 -6z m20 -107 c8 -40 -58 -64 -77 -29 -16 31 12 62 46 53 16 -4 29 -15 31
-24z"/>
<path d="M1413 2130 c-18 -10 -40 -23 -48 -30 -17 -14 -21 -90 -5 -90 6 0 10
-21 10 -47 1 -42 2 -46 14 -30 20 25 36 21 36 -10 l1 -28 24 28 c14 15 25 35
25 43 0 8 5 14 10 14 6 0 10 -5 10 -11 0 -6 9 -24 21 -40 17 -24 24 -27 35
-18 11 9 18 9 29 -1 17 -14 21 -60 5 -60 -5 0 -10 -7 -10 -15 0 -8 4 -15 9
-15 5 0 14 7 21 15 19 23 27 18 35 -22 l7 -36 19 29 c10 16 19 41 19 57 0 17
5 27 14 27 14 0 33 -72 29 -108 0 -8 7 -22 17 -32 14 -14 17 -28 13 -62 -6
-42 -6 -43 14 -25 37 32 45 19 56 -90 1 -13 5 -23 10 -23 14 0 27 -50 18 -72
-13 -37 -3 -50 25 -31 14 8 27 13 30 10 9 -9 -5 -27 -21 -27 -7 0 -15 -7 -19
-15 -3 -8 -12 -15 -21 -15 -8 0 -15 -8 -15 -18 0 -27 -34 -62 -59 -62 -19 0
-21 4 -16 23 6 18 5 20 -6 10 -9 -10 -10 -18 -1 -37 9 -19 8 -27 -4 -36 -8 -7
-14 -18 -14 -26 0 -13 -37 -44 -52 -44 -13 0 -9 24 8 59 15 31 11 59 -5 33 -4
-8 -15 -10 -26 -6 -13 5 -16 4 -11 -4 4 -7 -3 -17 -19 -24 -17 -7 -24 -17 -20
-28 4 -13 -9 -21 -57 -38 -69 -24 -113 -27 -170 -12 -68 19 -60 51 14 56 24 1
45 3 49 3 3 1 22 17 43 36 21 19 45 35 52 35 7 0 39 13 71 29 32 15 81 36 110
46 51 18 51 18 30 36 -46 38 -127 99 -132 99 -8 0 -20 11 -137 123 -55 53
-109 97 -119 97 -10 0 -20 4 -23 9 -8 12 -76 19 -82 9 -3 -4 7 -8 22 -8 34 0
21 -17 -16 -22 -19 -2 -24 1 -22 13 1 10 -6 19 -18 22 -21 5 -29 -8 -8 -15 6
-2 8 -9 4 -16 -9 -14 -46 6 -46 25 0 24 -31 13 -62 -22 -35 -41 -87 -66 -117
-58 -12 3 -21 1 -21 -6 0 -6 -5 -11 -10 -11 -6 0 -41 -17 -78 -38 -37 -21
-107 -51 -157 -67 -49 -16 -95 -32 -101 -37 -6 -4 -33 -20 -60 -34 -27 -14
-54 -32 -61 -40 -10 -14 -13 -13 -22 5 -16 29 -14 48 8 63 11 8 21 32 25 61 4
26 12 47 17 47 5 0 7 11 3 25 -8 31 2 32 34 3 l25 -23 -7 47 c-6 41 -4 48 13
58 14 7 21 21 21 42 0 35 20 98 31 98 4 0 10 -12 13 -27 17 -73 46 -110 46
-59 0 13 7 29 15 36 9 7 15 8 15 2 0 -5 7 -13 16 -16 14 -5 16 -1 11 29 -3 20
-3 43 0 51 6 16 33 19 33 4 0 -20 37 9 61 47 l22 38 8 -34 c4 -18 14 -40 23
-49 15 -15 16 -15 16 5 0 26 18 39 33 24 19 -19 26 -12 20 24 -3 19 -1 40 5
47 5 7 12 27 15 45 4 26 0 37 -29 62 -36 33 -74 40 -93 17 -7 -8 -23 -17 -37
-20 -19 -5 -24 -11 -20 -23 5 -11 -3 -25 -20 -40 -31 -26 -56 -29 -73 -9 -19
23 -51 26 -70 7 -9 -9 -32 -23 -49 -30 -22 -9 -30 -17 -23 -24 17 -17 -29 -66
-73 -78 -23 -6 -43 -14 -46 -18 -3 -5 -18 -14 -35 -22 -21 -10 -29 -21 -28
-36 2 -13 -13 -34 -40 -59 l-42 -39 40 -3 c57 -5 65 -19 22 -37 -19 -8 -38
-19 -42 -25 -3 -5 -15 -10 -26 -10 -10 0 -19 -4 -19 -10 0 -5 -7 -10 -15 -10
-17 0 -20 -16 -4 -25 6 -4 -9 -25 -35 -51 -26 -24 -46 -49 -46 -54 0 -13 27
-13 34 -1 6 10 20 9 47 -3 15 -6 14 -10 -7 -33 -14 -15 -24 -38 -24 -54 0 -16
-5 -29 -11 -29 -7 0 -9 -10 -5 -24 5 -20 -2 -33 -39 -68 -25 -24 -45 -47 -45
-52 0 -5 17 -6 37 -3 58 9 71 -4 43 -42 -12 -18 -24 -47 -25 -66 l-3 -35 27
15 c30 15 67 63 63 81 -1 6 5 17 13 24 13 10 15 9 15 -8 0 -11 4 -22 10 -24
22 -7 -4 -45 -43 -62 -39 -17 -40 -19 -23 -32 18 -13 16 -17 -38 -67 -31 -30
-56 -57 -56 -61 0 -5 22 -5 49 -1 58 8 70 -3 42 -42 -10 -16 -21 -47 -24 -71
l-5 -42 29 20 c40 30 69 69 69 96 0 39 27 28 34 -14 3 -20 16 -53 28 -72 21
-32 23 -33 26 -12 2 12 7 22 12 22 4 0 7 11 5 25 -3 31 5 32 35 0 20 -21 21
-25 6 -31 -9 -3 -16 -12 -16 -20 0 -8 -6 -14 -13 -14 -14 0 -47 -31 -47 -43 0
-4 10 -7 23 -7 42 0 66 12 69 34 3 18 6 15 22 -17 10 -21 16 -40 13 -44 -4 -3
-9 2 -13 11 -8 22 -24 20 -24 -2 0 -10 -7 -27 -15 -38 -8 -10 -15 -31 -15 -45
0 -32 -8 -40 -29 -29 -9 5 -50 22 -91 38 -59 23 -75 33 -73 49 2 14 -13 25
-59 46 -62 27 -79 28 -62 5 5 -7 9 -26 9 -43 0 -27 -5 -31 -54 -49 l-53 -19
61 -28 c46 -21 61 -33 61 -48 0 -16 21 -31 90 -66 76 -38 90 -49 90 -70 0 -30
38 -59 152 -113 203 -98 420 -138 706 -130 252 8 406 46 637 158 113 54 146
80 138 108 -4 16 12 27 84 64 64 33 89 51 93 68 4 16 23 32 58 49 28 14 52 29
52 32 0 4 -20 13 -45 20 -50 15 -51 19 -31 77 l15 41 -57 -25 c-31 -14 -62
-28 -68 -31 -7 -2 -10 -12 -7 -22 6 -22 -10 -35 -72 -56 -85 -28 -185 -78
-185 -92 0 -7 6 -22 13 -34 10 -17 9 -22 -12 -38 -28 -22 -167 -92 -190 -96
-9 -2 -16 -4 -16 -5 0 -1 -11 -3 -24 -6 -14 -2 -30 -9 -38 -15 -7 -6 -13 -8
-13 -4 0 4 -6 3 -12 -3 -51 -42 -416 -66 -578 -38 -137 24 -252 59 -367 112
l-101 47 15 34 c11 27 11 38 2 49 -16 20 12 50 37 40 9 -3 14 -9 10 -13 -9 -9
64 -83 82 -83 8 0 12 -6 8 -15 -7 -18 60 -55 99 -55 15 0 24 -4 20 -10 -11
-17 65 -42 128 -41 54 0 58 -1 41 -15 -17 -14 -11 -15 67 -11 68 2 94 8 130
28 l44 25 49 -25 c50 -26 157 -40 193 -27 15 6 15 8 3 16 -11 7 -2 10 30 10
53 0 114 16 132 34 7 7 33 20 58 30 25 9 54 24 65 32 17 13 18 16 5 24 -13 9
-13 10 0 10 8 0 33 16 55 35 33 29 37 36 25 45 -13 8 -13 10 2 10 9 0 20 -4
23 -10 3 -6 13 -10 21 -10 11 0 14 10 12 35 -1 19 3 40 10 47 18 18 14 30 -8
23 -25 -8 -25 -1 -3 25 10 11 28 20 40 20 32 0 29 8 -19 57 -41 42 -41 43 -23
63 26 28 32 25 39 -20 3 -22 11 -40 16 -40 14 0 50 75 50 104 0 42 18 39 38
-7 18 -40 72 -97 93 -97 25 0 5 86 -28 118 -17 17 -17 27 2 42 10 8 19 9 28 3
6 -5 25 -7 41 -4 l28 6 -44 40 c-56 51 -63 62 -47 81 10 12 9 16 -9 21 -12 3
-22 9 -22 14 0 5 -6 9 -14 9 -21 0 -30 20 -17 33 6 6 11 19 11 29 0 11 5 15
15 12 9 -4 14 -12 13 -20 -3 -14 68 -94 84 -94 19 0 1 83 -23 102 -31 26 -11
46 42 43 32 -2 39 1 37 14 -2 9 -13 20 -26 26 -12 5 -22 14 -22 20 0 6 -9 16
-21 23 -17 11 -18 16 -8 28 9 11 9 18 1 26 -7 7 -12 24 -12 39 0 15 -7 32 -15
39 -9 7 -15 23 -13 34 3 18 9 21 46 18 42 -4 43 -3 33 17 -7 12 -16 21 -22 21
-11 0 -58 50 -59 63 0 4 7 7 16 7 25 0 9 14 -53 45 -93 47 -103 69 -25 57 17
-2 32 -1 32 2 0 4 -18 25 -41 47 -34 33 -39 42 -29 54 7 9 11 16 9 18 -36 21
-51 27 -63 27 -8 0 -16 6 -19 14 -4 9 -14 12 -27 9 -29 -8 -94 59 -85 88 5 14
0 20 -22 25 -15 3 -33 12 -38 19 -20 25 -53 27 -72 6 -10 -12 -28 -21 -42 -21
-26 0 -64 37 -57 55 2 7 -17 23 -42 37 -46 25 -48 25 -79 8z m143 -157 c-7
-17 -8 -17 -17 0 -12 21 -2 44 13 29 6 -6 8 -19 4 -29z m-726 13 c0 -18 -26
-40 -34 -27 -9 14 4 41 20 41 8 0 14 -6 14 -14z m960 -86 c0 -5 -9 -10 -21
-10 -11 0 -17 5 -14 10 3 6 13 10 21 10 8 0 14 -4 14 -10z m-1206 -6 c25 -9
19 -24 -9 -24 -24 0 -32 10 -18 23 8 8 8 8 27 1z m551 -174 c3 -5 1 -10 -4
-10 -6 0 -11 5 -11 10 0 6 2 10 4 10 3 0 8 -4 11 -10z m255 -5 c11 -13 8 -15
-18 -15 -31 0 -47 11 -35 24 11 11 40 6 53 -9z m498 -12 c-4 -22 -22 -20 -26
1 -2 10 3 16 13 16 10 0 15 -7 13 -17z m-1408 -30 c0 -6 -7 -10 -15 -9 -23 3
-28 14 -14 29 14 15 29 5 29 -20z m760 17 c0 -5 -10 -12 -22 -15 -60 -17 -63
-18 -51 -5 28 30 73 42 73 20z m80 -5 c31 -16 40 -35 18 -35 -7 0 -22 -3 -34
-6 -13 -3 -28 1 -38 11 -21 21 -20 32 2 38 9 3 18 5 20 6 2 0 16 -6 32 -14z
m-50 -55 c0 -10 -126 -40 -165 -40 -15 0 -24 4 -20 10 3 6 15 10 26 10 11 0
31 7 45 16 48 32 114 34 114 4z m237 -64 c-3 -8 -1 -16 5 -18 21 -7 -1 -38
-27 -38 -14 0 -25 -5 -25 -11 0 -6 -7 -8 -16 -5 -8 3 -12 2 -9 -4 3 -6 3 -10
-2 -10 -4 0 -19 -3 -33 -6 -21 -6 -23 -4 -12 7 6 7 12 23 12 36 0 18 6 23 25
23 19 0 23 4 18 17 -4 9 -2 14 3 10 6 -3 16 -2 24 4 23 14 43 11 37 -5z m-397
-24 c0 -5 -17 -17 -39 -28 -31 -16 -36 -22 -25 -32 11 -10 15 -8 24 8 14 26
40 26 47 0 3 -11 9 -20 14 -20 5 0 9 -7 9 -15 0 -8 -7 -15 -15 -15 -8 0 -23
-4 -33 -10 -9 -5 -30 -15 -46 -20 -19 -7 -26 -15 -22 -25 7 -20 -13 -19 -36 2
-13 12 -22 13 -29 6 -8 -8 -7 -13 1 -18 8 -5 -2 -13 -26 -21 -60 -21 -64 -19
-47 29 9 23 15 54 15 70 -1 24 2 26 24 21 35 -9 80 4 65 19 -17 17 -13 27 12
27 12 0 31 7 41 15 21 16 66 20 66 7z m890 -63 c0 -20 -15 -26 -25 -9 -9 15 3
43 15 35 5 -3 10 -15 10 -26z m-1635 -9 c0 -7 -6 -15 -12 -17 -8 -3 -13 4 -13
17 0 13 5 20 13 18 6 -3 12 -11 12 -18z m100 -50 c10 -11 16 -23 13 -26 -7 -6
-48 27 -48 38 0 14 17 8 35 -12z m939 2 c3 -5 -3 -18 -13 -28 -9 -11 -16 -24
-14 -30 2 -6 -3 -17 -12 -24 -13 -11 -19 -8 -40 14 -13 14 -29 26 -35 26 -5 0
-10 5 -10 10 0 6 10 10 23 10 12 1 33 7 47 15 29 16 47 19 54 7z m-146 -89
c35 -35 68 -63 73 -63 5 0 9 -4 9 -10 0 -5 -15 -10 -33 -10 -25 0 -37 6 -45
23 l-11 22 0 -22 c-1 -24 -15 -31 -26 -13 -4 6 -2 17 4 24 8 10 6 18 -9 31
-11 10 -20 24 -20 32 0 7 -9 22 -20 33 -25 25 -27 48 -3 29 10 -8 46 -42 81
-76z m-674 25 c-42 -31 -52 -42 -27 -29 27 14 36 14 28 1 -3 -5 3 -10 15 -10
36 0 17 -24 -30 -37 -23 -7 -51 -15 -61 -18 -14 -5 -19 -1 -19 14 0 12 6 21
13 22 10 0 10 2 0 6 -7 2 -13 9 -13 14 0 13 80 54 114 58 5 1 -4 -9 -20 -21z
m56 8 c0 -2 -7 -7 -16 -10 -8 -3 -12 -2 -9 4 6 10 25 14 25 6z m28 -52 c12 -8
22 -22 22 -30 0 -24 29 -16 36 10 4 19 14 25 42 28 31 4 41 -1 69 -29 19 -18
38 -33 44 -33 6 0 24 -11 41 -25 16 -14 36 -25 43 -25 7 0 26 -13 41 -30 25
-25 34 -29 65 -24 33 6 38 3 44 -17 12 -38 85 -83 117 -73 16 5 18 2 12 -20
-6 -25 -4 -26 32 -26 56 0 82 -10 89 -31 5 -14 14 -17 40 -15 19 2 41 9 49 15
11 9 23 8 58 -8 47 -22 78 -24 120 -9 15 6 35 8 43 4 15 -5 15 -8 1 -28 -19
-27 -20 -60 -5 -103 7 -18 9 -43 6 -56 -6 -22 -11 -24 -73 -24 -46 0 -69 4
-72 13 -3 10 -9 10 -27 -2 -21 -14 -27 -14 -54 0 -17 9 -47 14 -67 12 -23 -2
-40 3 -47 13 -8 9 -28 15 -53 15 -52 -1 -91 19 -98 50 -5 17 -13 24 -31 24
-13 0 -26 4 -29 8 -5 9 -116 9 -131 0 -16 -10 -95 14 -95 29 0 7 -8 13 -18 13
-10 0 -27 7 -38 15 -10 8 -30 15 -43 15 -23 0 -86 33 -106 56 -20 22 -73 54
-92 54 -10 0 -29 9 -43 20 l-25 19 24 25 c13 13 20 29 17 35 -9 13 20 59 56
90 27 23 27 25 12 43 -21 22 -7 24 24 2z m186 -501 c37 -10 69 -26 82 -42 29
-34 21 -41 -11 -11 -34 32 -31 13 5 -30 21 -24 30 -29 30 -18 0 46 21 65 78
72 31 4 68 9 82 13 24 5 25 5 5 -11 -14 -12 -8 -11 20 4 49 25 76 25 141 2 28
-11 68 -18 90 -17 21 1 54 -4 73 -12 23 -9 38 -10 46 -3 8 7 22 5 42 -5 24
-12 29 -20 25 -40 -3 -17 -11 -25 -26 -26 -17 -1 -17 -2 -3 -6 9 -2 17 -11 17
-19 0 -19 13 -18 43 6 31 25 37 25 37 1 0 -10 -13 -33 -29 -50 -15 -16 -34
-45 -42 -63 -13 -33 -26 -48 -43 -48 -5 0 -1 10 10 23 21 23 47 77 38 77 -11
0 -83 -40 -89 -50 -4 -6 -16 -8 -26 -5 -32 10 -113 -14 -166 -48 -38 -25 -59
-32 -98 -32 -32 0 -50 -4 -50 -12 0 -7 -4 -16 -10 -21 -22 -20 -104 -43 -141
-40 -39 3 -38 4 32 26 39 12 81 22 94 22 l23 0 -24 18 c-32 24 -151 84 -156
78 -3 -2 -18 0 -34 4 -17 5 -31 5 -34 -1 -4 -5 -21 2 -38 14 -40 30 -65 39
-72 27 -9 -15 -25 -12 -25 4 0 16 -50 52 -67 48 -7 -2 -13 6 -13 18 0 25 12
26 35 0 22 -24 35 -26 35 -4 0 14 8 16 45 12 25 -3 45 -2 45 3 0 9 -9 11 -60
13 -48 2 -63 96 -15 96 14 0 19 11 16 38 -2 16 11 15 83 -5z m982 -51 c-20
-20 -22 -1 -4 31 11 20 12 21 16 3 2 -10 -3 -26 -12 -34z m-875 11 c13 -15 12
-15 -8 -4 -24 12 -29 21 -14 21 5 0 15 -7 22 -17z m810 -60 c-9 -15 -10 -13
-11 14 0 17 3 40 8 50 5 14 8 11 10 -14 2 -18 -1 -41 -7 -50z m-1191 33 c0
-13 3 -33 6 -43 5 -16 4 -16 -10 1 -18 22 -22 66 -6 66 6 0 10 -11 10 -24z
m1115 -112 c-8 -13 -21 -24 -28 -24 -8 0 -8 3 -2 8 6 4 17 27 25 52 13 41 15
43 18 17 2 -16 -4 -39 -13 -53z m129 55 c-10 -12 -32 -28 -49 -36 -29 -14 -29
-13 7 21 40 39 74 50 42 15z m-1268 -24 c21 -19 33 -34 26 -35 -7 0 -29 16
-50 35 -48 45 -27 46 24 0z m1174 -21 c-10 -11 -10 -14 1 -14 8 0 5 -6 -7 -15
-10 -8 -23 -14 -29 -14 -5 0 -1 6 10 15 11 8 19 17 18 19 -2 3 1 20 4 37 6 28
8 30 11 10 2 -13 -2 -30 -8 -38z m-1081 24 c5 -13 12 -34 16 -48 6 -23 6 -24
-9 -10 -16 16 -34 80 -22 80 4 0 10 -10 15 -22z m977 -77 c-16 -29 -56 -61
-56 -43 0 12 62 84 67 78 3 -2 -3 -18 -11 -35z m-991 19 c3 -5 -3 -10 -15 -10
-12 0 -18 5 -15 10 3 6 10 10 15 10 5 0 12 -4 15 -10z m128 -61 c12 -44 -34
-4 -53 46 l-11 30 29 -29 c17 -15 32 -37 35 -47z m991 50 c-8 -14 -84 -49
-104 -48 -8 0 10 13 40 29 60 32 75 36 64 19z m-1086 -36 c7 -3 12 4 13 18 0
22 1 23 8 4 5 -11 4 -22 0 -23 -5 -2 -7 -8 -3 -13 9 -15 -28 -10 -65 9 -51 25
-54 48 -5 27 22 -9 45 -19 52 -22z m992 23 c0 -3 -4 -8 -10 -11 -5 -3 -10 -1
-10 4 0 6 5 11 10 11 6 0 10 -2 10 -4z m-876 -22 c3 -8 2 -12 -4 -9 -6 3 -10
10 -10 16 0 14 7 11 14 -7z m721 -30 c-21 -19 -47 -34 -58 -34 -19 0 -19 2 -7
14 27 27 85 63 93 58 5 -2 -8 -19 -28 -38z m-650 4 c48 -35 55 -48 28 -48 -17
0 -83 57 -83 72 0 13 9 9 55 -24z m-125 -8 c0 -5 -4 -10 -10 -10 -5 0 -10 5
-10 10 0 6 5 10 10 10 6 0 10 -4 10 -10z m80 -10 c10 -19 10 -20 -9 -8 -11 6
-17 16 -15 20 8 12 12 10 24 -12z m585 0 c-17 -19 -113 -55 -123 -46 -5 5 31
26 83 47 54 23 61 23 40 -1z m-385 -17 c39 -18 50 -27 37 -30 -28 -7 -58 3
-96 32 -48 34 -15 34 59 -2z m635 6 c-43 -20 -127 -27 -109 -9 6 6 30 12 53
15 24 2 46 6 49 9 3 3 15 6 26 5 15 0 10 -6 -19 -20z m274 -21 c19 -20 27 -34
20 -37 -6 -2 -16 4 -21 13 -5 9 -14 16 -20 16 -6 0 -3 -9 7 -20 18 -20 18 -21
-1 -35 -24 -18 -39 -19 -53 -1 -9 11 -9 15 1 19 7 3 3 6 -9 6 -27 1 -29 -6 -6
-31 19 -21 18 -23 -20 -32 -22 -5 -29 -3 -36 15 -5 16 -10 19 -15 10 -4 -6 -2
-19 5 -27 6 -8 9 -18 5 -22 -4 -4 -13 1 -20 11 -16 21 -23 22 -23 2 0 -8 4
-15 9 -15 4 0 8 -4 8 -10 0 -15 -26 -12 -39 4 -9 11 -9 15 1 19 7 3 2 6 -11 6
-17 1 -21 -3 -17 -14 21 -51 21 -51 4 -37 -13 10 -17 10 -20 0 -4 -10 -10 -10
-29 -1 -18 9 -20 12 -6 12 9 1 17 6 17 12 0 6 -9 8 -20 4 -40 -13 -19 13 25
29 25 10 43 21 40 26 -3 4 2 14 11 21 13 10 17 10 23 0 11 -18 127 38 123 58
-3 13 14 30 29 31 4 0 21 -15 38 -32z m-1126 3 c17 -17 -74 -13 -103 5 -24 14
-22 15 34 10 32 -3 64 -10 69 -15z m87 -14 c8 -3 1 -6 -16 -6 -20 -1 -31 4
-31 13 0 10 5 12 16 7 9 -5 23 -11 31 -14z m89 -16 c-6 -2 -21 7 -33 19 l-21
23 33 -19 c18 -10 28 -20 21 -23z m441 34 c0 -2 -15 -12 -32 -20 l-33 -16 24
21 c22 19 41 26 41 15z m83 -12 c-7 -2 -21 -2 -30 0 -10 3 -4 5 12 5 17 0 24
-2 18 -5z m-984 -38 c75 -37 91 -41 91 -25 0 5 6 7 14 4 16 -6 29 -46 17 -54
-4 -3 -10 -13 -14 -22 -3 -10 -11 -18 -17 -18 -6 0 -8 4 -5 10 3 6 -1 7 -9 4
-11 -4 -16 0 -17 12 0 11 -3 14 -5 7 -3 -7 -11 -10 -19 -7 -15 6 -9 34 9 46 7
5 4 8 -6 8 -9 0 -20 -9 -23 -20 -8 -25 -16 -25 -43 0 -12 12 -22 16 -22 10 0
-5 -4 -10 -10 -10 -5 0 -10 8 -10 17 0 9 -3 13 -7 10 -9 -9 -33 12 -33 29 0 8
7 14 16 14 8 0 12 5 9 10 -11 17 9 11 84 -25z m1008 4 c-54 -14 -147 -14 -147
1 0 9 146 19 165 11 5 -3 -3 -8 -18 -12z m-569 2 c11 -7 10 -10 -3 -15 -37
-14 -160 -2 -149 15 7 11 135 11 152 0z m87 -1 c-27 -12 -35 -12 -35 0 0 6 12
10 28 9 24 0 25 -1 7 -9z m318 -29 c15 -6 27 -13 27 -16 0 -6 -68 -1 -105 9
-11 2 -24 5 -30 5 -5 1 -21 10 -35 20 -24 19 -24 19 45 6 39 -7 82 -18 98 -24z
m-30 32 c-7 -2 -21 -2 -30 0 -10 3 -4 5 12 5 17 0 24 -2 18 -5z m-520 -120
c40 -9 78 -16 86 -16 8 0 16 -8 18 -17 4 -15 8 -15 30 6 31 29 56 30 97 5 35
-22 31 -21 85 -21 36 0 38 -2 37 -30 -1 -16 -5 -30 -9 -30 -19 0 -47 22 -41
32 5 7 2 8 -5 4 -7 -5 -10 -14 -7 -22 8 -20 -10 -26 -24 -8 -11 12 -15 12 -22
2 -6 -11 -10 -11 -16 0 -5 7 -16 10 -24 7 -21 -8 -33 12 -18 30 10 12 9 15 -4
15 -9 0 -17 -7 -17 -15 -1 -8 -3 -19 -4 -25 -1 -5 -3 -14 -4 -18 -2 -15 -61
-12 -61 3 0 7 6 16 13 19 6 3 1 4 -13 3 -22 -2 -25 2 -23 28 l2 30 -13 -35
c-11 -28 -15 -31 -21 -18 -4 9 -13 14 -20 12 -18 -7 -31 16 -14 27 8 5 10 9 5
9 -5 0 -18 -8 -28 -17 -17 -16 -20 -16 -35 0 -11 11 -13 17 -5 17 7 0 12 5 12
10 0 21 -20 9 -26 -15 -3 -14 -10 -22 -15 -19 -5 3 -7 9 -4 14 3 4 -3 6 -13 3
-25 -6 -51 24 -29 33 9 3 13 12 10 20 -4 12 0 13 22 4 15 -6 59 -18 98 -27z
m767 0 c0 -6 3 -19 7 -29 5 -14 1 -16 -26 -12 -24 3 -31 1 -27 -9 3 -7 1 -13
-4 -13 -5 0 -12 11 -16 25 -6 24 -24 35 -24 15 0 -6 -11 -8 -26 -4 -19 5 -25
4 -20 -5 4 -6 12 -9 17 -6 5 4 9 2 9 -3 0 -6 9 -8 20 -5 14 4 20 0 20 -11 0
-19 -1 -19 -35 -6 -23 9 -26 8 -21 -5 3 -8 1 -15 -4 -15 -6 0 -10 4 -10 8 0 5
-7 17 -16 28 -15 18 -15 18 -9 -8 3 -16 1 -28 -5 -28 -5 0 -10 8 -10 18 -1 16
-1 16 -11 0 -5 -10 -17 -18 -24 -18 -18 0 -20 26 -2 34 6 3 3 5 -8 3 -14 -2
-20 -9 -19 -25 1 -22 -14 -24 -58 -7 -10 4 -18 3 -18 -3 0 -6 6 -13 13 -15 6
-3 3 -6 -8 -6 -21 -1 -45 16 -45 32 0 4 4 6 9 2 5 -3 12 -1 16 5 3 5 -2 10
-12 11 -28 2 45 16 119 24 52 5 66 10 61 21 -3 10 2 14 18 14 19 0 21 -2 9
-10 -13 -8 -13 -10 2 -10 27 0 48 11 48 25 0 8 10 15 23 17 27 4 67 -13 67
-29z"/>
<path d="M1101 744 c0 -11 3 -14 6 -6 3 7 2 16 -1 19 -3 4 -6 -2 -5 -13z"/>
<path d="M886 734 c-3 -9 -6 -27 -6 -40 0 -21 -4 -24 -20 -19 -11 4 -20 2 -20
-4 0 -6 7 -12 15 -12 35 -3 40 -5 38 -17 -3 -10 24 -17 50 -13 4 0 7 -5 7 -12
0 -33 91 -91 143 -90 44 0 160 23 172 34 5 5 17 9 27 9 10 0 18 5 18 10 0 6
-10 10 -22 10 -13 0 -41 2 -63 5 l-40 5 40 -14 40 -14 -32 -1 c-17 -1 -35 -5
-38 -11 -13 -21 -50 -10 -67 20 -9 17 -24 30 -32 30 -8 0 -19 8 -25 17 -8 15
-12 12 -31 -20 -12 -20 -26 -37 -31 -37 -19 0 -8 46 18 67 14 13 21 23 15 23
-6 0 -14 -4 -17 -10 -10 -16 -22 -12 -28 11 -5 17 -9 19 -26 10 -28 -15 -31
-14 -31 12 -1 20 -31 67 -43 67 -3 0 -8 -7 -11 -16z m27 -61 c-7 -18 -9 -15
-16 27 -6 34 -6 34 7 11 8 -14 12 -31 9 -38z m79 -60 c-2 -13 -8 -23 -12 -23
-12 0 -21 45 -10 48 6 2 10 11 11 20 0 14 2 13 8 -2 4 -11 6 -30 3 -43z m88
-23 c0 -11 5 -20 10 -20 6 0 10 5 10 10 0 6 5 10 11 10 6 0 8 -9 4 -20 -4 -12
-2 -20 5 -20 6 0 8 -4 5 -10 -11 -18 -42 -11 -53 13 -6 12 -11 16 -11 10 -1
-20 -21 -15 -21 5 0 19 18 42 32 42 4 0 8 -9 8 -20z"/>
<path d="M1168 743 c-9 -2 -24 -15 -32 -29 -9 -13 -26 -24 -38 -24 -12 0 -19
-3 -15 -6 12 -12 56 6 62 26 8 27 42 26 74 -2 l26 -23 -20 24 c-11 13 -19 26
-17 30 4 8 -18 10 -40 4z"/>
<path d="M1080 710 c0 -13 11 -13 30 0 12 8 11 10 -7 10 -13 0 -23 -4 -23 -10z"/>
<path d="M1250 685 c0 -7 61 -37 67 -32 2 3 -5 8 -16 12 -12 3 -21 11 -21 16
0 5 -7 9 -15 9 -8 0 -15 -2 -15 -5z"/>
<path d="M1453 673 c9 -2 25 -2 35 0 9 3 1 5 -18 5 -19 0 -27 -2 -17 -5z"/>
<path d="M1392 663 c-9 -4 -10 -8 -2 -18 9 -10 6 -16 -11 -25 -20 -11 -42 -11
-129 5 -20 3 -9 -3 25 -14 33 -12 69 -18 80 -14 29 8 66 39 57 47 -3 4 0 11 8
16 13 9 13 10 0 9 -8 0 -21 -3 -28 -6z"/>
<path d="M1875 440 c-3 -5 -2 -10 4 -10 5 0 13 5 16 10 3 6 2 10 -4 10 -5 0
-13 -4 -16 -10z"/>
<path d="M975 310 c-4 -6 3 -10 14 -10 25 0 27 6 6 13 -8 4 -17 2 -20 -3z"/>
<path d="M942 270 c0 -14 2 -19 5 -12 2 6 2 18 0 25 -3 6 -5 1 -5 -13z"/>
<path d="M1125 260 c-3 -5 -1 -10 4 -10 6 0 11 5 11 10 0 6 -2 10 -4 10 -3 0
-8 -4 -11 -10z"/>
<path d="M1508 343 c7 -3 16 -2 19 1 4 3 -2 6 -13 5 -11 0 -14 -3 -6 -6z"/>
<path d="M1530 320 c0 -5 5 -10 10 -10 6 0 10 5 10 10 0 6 -4 10 -10 10 -5 0
-10 -4 -10 -10z"/>
<path d="M1270 280 c-8 -5 -10 -10 -5 -10 6 0 17 5 25 10 8 5 11 10 5 10 -5 0
-17 -5 -25 -10z"/>
<path d="M1109 1791 c-13 -11 -22 -22 -19 -24 3 -3 18 6 33 19 33 28 20 33
-14 5z"/>
<path d="M1800 1435 c-14 -8 -20 -14 -14 -15 5 0 19 7 30 15 24 18 16 19 -16
0z"/>
<path d="M1520 1285 c-7 -8 -9 -22 -6 -31 4 -9 7 -15 9 -13 1 2 13 16 26 32
24 26 24 27 4 27 -11 0 -26 -7 -33 -15z"/>
</g>
</svg>
